<svg width="8.000000" height="6.000000" viewBox="0 0 8 6" fill="none" xmlns="http://www.w3.org/2000/svg" xmlns:xlink="http://www.w3.org/1999/xlink">
	<desc>
			Created with Pixso.
	</desc>
	<defs/>
	<g opacity="0.900000">
		<path id="Icon" d="M2.71 5.87L0.1 3.26C0.03 3.19 0 3.09 0 2.98C0 2.86 0.03 2.77 0.1 2.7L0.68 2.13C0.76 2.05 0.85 2.01 0.96 2.01C1.07 2.01 1.16 2.05 1.25 2.13L3 3.89L6.75 0.12C6.83 0.04 6.92 0 7.03 0C7.14 0 7.23 0.04 7.31 0.12L7.89 0.69C7.96 0.76 8 0.85 8 0.97C8 1.08 7.96 1.18 7.89 1.25L3.28 5.87C3.2 5.95 3.11 6 3 6C2.88 6 2.79 5.95 2.71 5.87Z" fill="#FFFFFF" fill-opacity="1.000000" fill-rule="nonzero"/>
	</g>
</svg>
